<?xml version="1.0" standalone="no"?>
<!DOCTYPE svg PUBLIC "-//W3C//DTD SVG 1.1//EN" "http://www.w3.org/Graphics/SVG/1.1/DTD/svg11.dtd" >
<svg xmlns="http://www.w3.org/2000/svg" xmlns:xlink="http://www.w3.org/1999/xlink" version="1.1">
<metadata></metadata>
<defs>
<font id="acknowledgementmedium" horiz-adv-x="2054" >
<font-face units-per-em="2048" ascent="1638" descent="-410" />
<missing-glyph horiz-adv-x="409" />
<glyph horiz-adv-x="0" />
<glyph horiz-adv-x="682" />
<glyph unicode=" "  horiz-adv-x="409" />
<glyph unicode="&#x09;" horiz-adv-x="409" />
<glyph unicode="&#xa0;" horiz-adv-x="409" />
<glyph unicode="!" horiz-adv-x="745" d="M123 1303h530l-55 -846h-420zM133 178q0 91 78.5 156t185.5 65q106 0 186.5 -65t80.5 -156q0 -92 -80 -151.5t-187 -59.5t-185.5 59.5t-78.5 151.5z" />
<glyph unicode="&#x22;" horiz-adv-x="847" d="M113 1448h288l-30 -438h-230zM481 1448h289l-31 -438h-229z" />
<glyph unicode="#" horiz-adv-x="1175" d="M154 752v155l145 31v203l-145 -31v156l145 30v148l217 45v-146l143 29v148l218 45v-146l145 31v-156l-145 -30v-203l145 31v-156l-145 -31v-147l-218 -45v145l-143 -29v-147l-217 -45v145zM516 985l143 29v203l-143 -29v-203z" />
<glyph unicode="$" horiz-adv-x="1601" d="M41 -16v520h283v-74q0 -72 84.5 -123.5t226.5 -75.5v246q-557 86 -557 420q0 83 34 152t88.5 115t129.5 80.5t149 53.5t156 29v217h332v-223q167 -34 297 -123v102h282v-501h-282v75q0 46 -44.5 83t-108 59t-144.5 37v-226q75 -9 132.5 -19.5t122 -28t112 -40t92.5 -57.5 t73 -78.5t45 -103.5t17 -133q0 -175 -149 -283t-445 -131v-182h-332v186q-189 18 -311 84v-57h-283zM498 942q0 -22 19.5 -37.5t46 -22.5t71.5 -14v193q-70 -9 -103.5 -36.5t-33.5 -82.5zM967 229q170 32 170 107q0 39 -23.5 62.5t-56 32t-90.5 15.5v-217z" />
<glyph unicode="%" horiz-adv-x="2457" d="M82 864q0 112 67.5 202t171.5 136.5t220 46.5t218.5 -47.5t167 -137t64.5 -200.5q0 -89 -38 -162.5t-101.5 -120t-143.5 -71.5t-167 -25q-119 0 -223 45t-170 133.5t-66 200.5zM378 870q0 -85 43 -145.5t122 -60.5q89 0 134.5 59.5t45.5 136.5q0 44 -6.5 78.5t-24 70 t-55.5 55t-94 19.5q-77 0 -121 -63.5t-44 -149.5zM492 -156l1036 1465h430l-1036 -1465h-430zM1468 303q0 112 67.5 202t171.5 136.5t220 46.5t218.5 -47.5t167.5 -137t65 -200.5q0 -89 -38 -162.5t-102 -120t-144 -71.5t-167 -25q-119 0 -223 45t-170 133.5t-66 200.5z M1764 309q0 -85 43 -146t122 -61q89 0 134.5 60t45.5 137q0 44 -6.5 78.5t-24 70t-55.5 55t-94 19.5q-77 0 -121 -63.5t-44 -149.5z" />
<glyph unicode="&#x26;" horiz-adv-x="1845" d="M88 342q0 126 77.5 224.5t194.5 154.5q-44 49 -67 111.5t-23 123.5q0 172 126 265.5t358 93.5q103 0 185 -28.5t128.5 -70.5t77 -94.5t41 -94.5t10.5 -77q0 -179 -248 -288l303 -244q24 23 35.5 42.5t20.5 53.5h-131v236h538v-236h-147q-7 -82 -46.5 -158t-88.5 -123h323 v-235h-469l-119 84q-106 -65 -197 -97t-225 -32q-657 0 -657 389zM479 342q0 -22 13 -44.5t41.5 -46t86 -38t134.5 -14.5q98 0 180 47l-344 289q-60 -31 -85.5 -74.5t-25.5 -118.5zM616 975q0 -24 5 -42t20.5 -35t23.5 -24t35 -25.5t33 -23.5q44 13 81 39.5t54 47.5t17 30 q-3 62 -36.5 96.5t-119.5 34.5q-113 0 -113 -98z" />
<glyph unicode="'" horiz-adv-x="585" d="M150 1448h288l-30 -438h-230z" />
<glyph unicode="(" horiz-adv-x="1052" d="M55 609q0 166 54 303t143 227.5t208.5 153.5t246 90.5t258.5 27.5h24v-293q-121 0 -213.5 -27t-150 -72t-93 -112t-49.5 -139.5t-14 -161.5q0 -151 28 -250t93 -159t159.5 -84.5t238.5 -24.5h9v-293h-16q-176 0 -312 22.5t-254.5 78t-195.5 147t-120.5 233.5t-43.5 333z " />
<glyph unicode=")" horiz-adv-x="1052" d="M55 88h18q143 0 237 24.5t157 84.5t90 158.5t27 250.5q0 89 -14 161.5t-50 139.5t-93.5 112t-150 72t-213.5 27v293h25q132 0 258 -27.5t244.5 -90t207.5 -153t143 -226.5t54 -300q0 -138 -22.5 -250.5t-63 -197t-103.5 -148t-138 -106t-172 -69t-201 -37.5t-229 -11h-11 v293z" />
<glyph unicode="*" horiz-adv-x="958" d="M78 1145l205 69l-205 68l135 172l170 -106l-33 153h266l-38 -151l165 104l138 -172l-205 -68l205 -69l-138 -172l-170 106l33 -153h-266l39 151l-166 -104z" />
<glyph unicode="+" horiz-adv-x="1245" d="M102 539v223h381v297h283v-297h377v-223h-377v-299h-283v299h-381z" />
<glyph unicode="," horiz-adv-x="841" d="M121 160q0 94 85 160.5t202 66.5q75 0 146.5 -28.5t119 -81.5t47.5 -115t-12.5 -108t-49.5 -95q-42 -62 -102 -103.5t-184 -105.5l-150 137q95 45 131 62q-100 14 -166.5 71.5t-66.5 139.5z" />
<glyph unicode="-" horiz-adv-x="1226" d="M340 567v166h549v-166h-549z" />
<glyph unicode="." horiz-adv-x="821" d="M123 172q0 90 85 152.5t202 62.5q118 0 203 -62.5t85 -152.5q0 -88 -85 -145.5t-203 -57.5q-116 0 -201.5 57.5t-85.5 145.5z" />
<glyph unicode="/" horiz-adv-x="1048" d="M37 -205l547 1616h428l-547 -1616h-428z" />
<glyph unicode="0" horiz-adv-x="1679" d="M33 629q0 120 45.5 227.5t125 188t182.5 140t222.5 90t241.5 30.5q152 0 296 -49.5t255.5 -136.5t179.5 -215t68 -275q0 -127 -44.5 -236t-121 -186.5t-178.5 -133t-217.5 -82t-237.5 -26.5q-119 0 -236 27t-221.5 83t-185 134t-127.5 186.5t-47 233.5zM512 606 q0 -98 40 -184.5t119 -142.5t179 -56q77 0 139 33t100 88t58 122t20 138q0 69 -8 130t-29.5 123.5t-56 107t-92 72.5t-131.5 28q-73 0 -131.5 -27.5t-96.5 -72t-63.5 -105t-36 -124t-10.5 -130.5z" />
<glyph unicode="1" horiz-adv-x="1474" d="M303 831v230q123 10 174 56t62 151h417v-1012h218v-256h-859v256h220v575h-232z" />
<glyph unicode="2" horiz-adv-x="1679" d="M61 0v215q0 59 27 113t70 96t105 80.5t123.5 66t135 53t130 41t116.5 29.5q68 16 107 26t77.5 23.5t56.5 25t33.5 29t20 38t4.5 49.5q0 28 -2 44.5t-16 42t-40.5 39.5t-80 25t-129.5 11q-118 0 -181 -48t-63 -165h-459q0 102 48.5 185t123.5 135t172.5 87t190 49.5 t180.5 14.5q135 0 243.5 -13t203 -43.5t157.5 -79.5t99 -124t36 -173q0 -65 -13 -116.5t-43.5 -92.5t-66 -71.5t-95.5 -59.5t-115.5 -50.5t-141.5 -49.5q-67 -22 -202 -53.5t-218.5 -60t-111.5 -64.5h792v240h283v-494h-1557z" />
<glyph unicode="3" horiz-adv-x="1677" d="M66 430h462q0 -96 86 -157.5t222 -61.5q297 0 297 182q0 35 -19 59t-49.5 36.5t-81.5 18.5t-101.5 7.5t-122.5 1.5h-54v291q51 0 80.5 0.5t72 1.5t67 4.5t55 8.5t47.5 14t33 20.5t23 28t7 37.5q0 18 -2 30t-9 30.5t-24 31t-44 24.5t-73 18.5t-107 6.5q-121 0 -186 -51 t-65 -148h-449q0 99 44 177.5t112.5 126.5t160 80t178.5 44.5t175 12.5q121 0 224 -11.5t198 -39.5t161.5 -72t106 -113t39.5 -158q0 -144 -141 -209q108 -50 165.5 -126.5t57.5 -190.5q0 -97 -43 -172.5t-116 -124t-177.5 -79.5t-219 -43.5t-249.5 -12.5q-67 0 -135 6.5 t-142 23t-140 41t-126 62.5t-103.5 86t-69 114.5t-25.5 143.5z" />
<glyph unicode="4" horiz-adv-x="1679" d="M31 541l882 727h394v-686h342v-254h-342v-72h219v-256h-858v256h217v72h-705zM621 582h264v221z" />
<glyph unicode="5" horiz-adv-x="1679" d="M61 410h461q0 -47 22 -84t54.5 -58t74 -34.5t75 -18t63.5 -4.5q96 0 164 18.5t100 48.5t45 58t13 57q0 34 -1.5 55t-8 50.5t-19.5 48t-37 39.5t-58.5 32.5t-86 19t-117.5 7.5q-81 0 -149 -25.5t-103 -54t-72 -69.5h-338v772h1454v-400h-284v101h-846v-164 q163 102 381 102q68 0 137.5 -6.5t146.5 -23t145.5 -41.5t132 -64.5t109 -89.5t72.5 -118.5t27 -149.5q0 -121 -66 -212t-182.5 -144t-259.5 -79t-311 -26q-64 0 -129 5.5t-139 19.5t-139.5 36t-127.5 58t-106 82t-70.5 112t-26.5 144z" />
<glyph unicode="6" horiz-adv-x="1679" d="M111 598q0 113 26 210t71 168.5t108 128.5t133.5 94t151 62t158 35.5t156.5 10.5q68 0 147.5 -12.5t165 -42t154.5 -71.5t113.5 -107.5t44.5 -143.5h-448q0 69 -71 107t-167 38q-204 0 -263 -156q-28 -72 -28 -174q182 128 410 128q156 0 292 -57.5t220 -165t84 -240.5 q0 -457 -719 -457q-154 0 -290.5 49t-235 134t-156 205t-57.5 257zM598 414q0 -24 6.5 -50t25 -57t48 -55t80.5 -40.5t116 -16.5q72 0 124 23t76.5 59.5t35 69.5t10.5 65q0 92 -58 152.5t-196 60.5q-137 0 -202.5 -59.5t-65.5 -151.5z" />
<glyph unicode="7" horiz-adv-x="1679" d="M37 776v492h1605v-273q-38 -30 -126.5 -96.5t-143 -109t-124 -105.5t-115.5 -119q-86 -102 -127 -231t-41 -334h-559q0 123 16.5 220t46.5 172t86 146.5t119.5 131t163.5 137.5l215 168h-734v-199h-282z" />
<glyph unicode="8" horiz-adv-x="1681" d="M82 385q0 216 227 320q-145 74 -145 227q0 89 35 156.5t94.5 110t148.5 69t187.5 37t220.5 10.5t219 -10.5t183 -37t143 -69.5t90 -110t33 -156q0 -152 -146 -227q227 -104 227 -320q0 -98 -38 -173t-104.5 -123.5t-164 -79.5t-207.5 -43.5t-245 -12.5t-245 12.5 t-207.5 43.5t-163.5 79.5t-104 123.5t-38 173zM537 375q0 -205 288 -205q79 0 139.5 16t93.5 38.5t53 52.5t26 53t6 45q0 92 -72 150.5t-231 58.5q-158 0 -230.5 -58.5t-72.5 -150.5zM580 930q0 -174 272 -174q76 0 127.5 13t77 38t35.5 54t10 69q0 20 -5 41.5t-22.5 50.5 t-46 51t-81.5 37.5t-122 15.5q-68 0 -116.5 -15.5t-72.5 -35.5t-37.5 -50.5t-16 -50t-2.5 -44.5z" />
<glyph unicode="9" horiz-adv-x="1679" d="M109 334h462q5 -41 19.5 -66.5t59.5 -44t122 -18.5q90 0 157 29t104.5 78.5t57 103t25.5 114.5q-173 -107 -399 -107q-116 0 -224.5 31t-193 86.5t-135.5 140.5t-51 185q0 110 56.5 195t155.5 137.5t227.5 79.5t278.5 27q146 0 281.5 -48.5t236.5 -131t161.5 -199 t60.5 -246.5q0 -157 -43 -283t-115.5 -208t-173.5 -136.5t-211.5 -78t-234.5 -23.5q-43 0 -91.5 3t-117 13.5t-131.5 27t-127 46.5t-111 68.5t-76.5 96.5t-29.5 128zM561 864q0 -91 58.5 -141.5t197.5 -50.5t202.5 52.5t63.5 139.5q0 22 -6 45t-24.5 52t-47.5 50.5 t-80.5 36.5t-117.5 15q-61 0 -107 -14.5t-72 -35t-41.5 -49.5t-20.5 -52.5t-5 -47.5z" />
<glyph unicode=":" horiz-adv-x="821" d="M123 195q0 99 85.5 168t203.5 69q117 0 201.5 -69t84.5 -168q0 -98 -85 -162t-201 -64q-118 0 -203.5 63.5t-85.5 162.5zM123 784q0 99 85.5 168.5t203.5 69.5q117 0 201.5 -69.5t84.5 -168.5q0 -98 -85 -161.5t-201 -63.5q-118 0 -203.5 63.5t-85.5 161.5z" />
<glyph unicode=";" horiz-adv-x="845" d="M123 186q0 99 85.5 169.5t203.5 70.5q116 0 213.5 -70t97.5 -169q0 -71 -12.5 -120.5t-49.5 -102t-105.5 -103.5t-180.5 -111l-148 146q71 35 129 65q-99 14 -166 75.5t-67 149.5zM123 782q0 99 85.5 169.5t203.5 70.5q116 0 201 -70.5t85 -169.5q0 -100 -85 -164.5 t-201 -64.5q-118 0 -203.5 64.5t-85.5 164.5z" />
<glyph unicode="&#x3c;" horiz-adv-x="1130" d="M61 553l764 596l244 -188l-526 -410l526 -410l-244 -186z" />
<glyph unicode="=" horiz-adv-x="1236" d="M184 158v217h869v-217h-869zM184 516v217h869v-217h-869z" />
<glyph unicode="&#x3e;" horiz-adv-x="1130" d="M61 141l527 410l-527 410l244 188l764 -600l-764 -594z" />
<glyph unicode="?" horiz-adv-x="1556" d="M92 834q0 102 45.5 184.5t117.5 134.5t165.5 87.5t183.5 50t178 14.5q349 0 516.5 -87t167.5 -301q0 -61 -23 -111t-55.5 -81t-82 -58t-89 -40.5t-91.5 -30t-74 -25.5q-33 -15 -51 -30t-30 -44t-12 -73h-473q0 194 82 266q58 51 148.5 89.5t148.5 47.5q51 8 83 20.5 t45 29t16.5 28.5t3.5 29q0 18 -2 29.5t-15.5 29t-37.5 28t-71.5 18.5t-115.5 8q-107 0 -163 -49.5t-56 -163.5h-459zM485 178q0 91 79 156t186 65q105 0 183.5 -65t78.5 -156q0 -92 -78 -151.5t-184 -59.5q-107 0 -186 59.5t-79 151.5z" />
<glyph unicode="@" horiz-adv-x="1843" d="M41 614q0 105 45.5 207.5t130.5 189.5t197.5 153.5t256 104.5t296.5 38q395 0 615 -172.5t220 -464.5q0 -91 -64 -176.5t-160 -143t-206.5 -92.5t-204.5 -35q-106 0 -184 115q-93 -51 -189 -51q-119 0 -199.5 73.5t-80.5 190.5q0 177 127 287t307 110q41 0 69 -8t66 -35 v39l183 -24l-109 -426q0 -55 29 -84t75 -29q85 0 163.5 81t78.5 204q0 88 -30 159.5t-80 118.5t-119.5 79t-145 46t-159.5 14q-97 0 -182 -14.5t-162 -48.5t-131.5 -85.5t-86.5 -130.5t-32 -179q0 -95 17.5 -170t45.5 -126.5t72.5 -89t90.5 -58.5t108 -33t115 -15.5 t122 -3.5h77q109 0 195 14t166 58q21 -24 72 -76t76 -82q-62 -47 -116.5 -73.5t-122.5 -38.5t-134.5 -15t-181.5 -4h-57q-404 0 -641.5 188t-237.5 514zM758 551q0 -47 24 -67t61 -20q49 0 79 19q12 8 35.5 33.5t37.5 34.5l52 213q-34 19 -47 23t-36 4h-24q-57 0 -100 -41 t-62.5 -94t-19.5 -105z" />
<glyph unicode="A" horiz-adv-x="2021" d="M41 0v254h258l635 1008l266 69l619 -1077h161v-254h-759v254h98l-45 88h-545l-51 -88h123v-254h-760zM868 575h285l-131 256z" />
<glyph unicode="B" horiz-adv-x="1884" d="M82 0v254h213v778h-213v236h987q76 0 135 -3t125 -11.5t115 -23.5t95 -40.5t75.5 -61t47 -86t17.5 -114.5q0 -118 -96 -201q219 -86 219 -334q0 -75 -24.5 -134.5t-64 -100t-101.5 -70.5t-125 -46.5t-147.5 -26t-155 -12.5t-160.5 -3h-942zM719 254h313q131 0 198 14.5 t90 42.5t23 82q0 102 -63.5 130t-271.5 28h-289v-297zM719 784h469q57 18 57 111q0 47 -13.5 75.5t-43 41.5t-57.5 16.5t-76 3.5h-336v-248z" />
<glyph unicode="C" horiz-adv-x="1933" d="M41 641q0 162 79 290.5t218.5 209.5t323.5 123.5t401 42.5q146 0 289.5 -43.5t242.5 -104.5v111h285v-608h-285v73q0 84 -73 155t-195 111.5t-262 40.5q-159 0 -274.5 -41t-182.5 -132.5t-67 -227.5q0 -106 41.5 -187.5t114 -131t165 -74.5t201.5 -25q415 0 532 283h297 q0 -55 -18 -111.5t-55.5 -117.5t-103.5 -113.5t-153.5 -95t-216 -67t-280.5 -24.5q-241 0 -425.5 36.5t-320.5 114t-207 206.5t-71 307z" />
<glyph unicode="D" horiz-adv-x="1957" d="M82 2v254h213v776h-213v236h917q196 0 353 -36t276 -110t183.5 -195t64.5 -282q0 -162 -60.5 -285.5t-173 -201.5t-268 -117t-350.5 -39h-942zM719 256h313q114 0 189 22.5t118 73t60.5 120t17.5 173.5q0 202 -92 294.5t-317 92.5h-289v-776z" />
<glyph unicode="E" horiz-adv-x="1763" d="M82 0v254h213v778h-213v236h1599v-492h-282v256h-680v-264h467v-236h-467v-278h680v240h282v-494h-1599z" />
<glyph unicode="F" horiz-adv-x="1763" d="M82 0v254h213v778h-213v236h1599v-492h-282v256h-680v-264h467v-236h-467v-278h221v-254h-858z" />
<glyph unicode="G" horiz-adv-x="1953" d="M41 641q0 163 80 291.5t220.5 209.5t325 123t400.5 42q147 0 302 -44.5t251 -103.5v111h285v-608h-285v73q0 84 -73 155t-195 111.5t-262 40.5q-119 0 -218 -24.5t-173.5 -72.5t-116 -125.5t-41.5 -178.5q0 -105 45 -187t122 -131t173 -74.5t206 -25.5q158 0 261.5 40 t138.5 116h-262v235h688v-608h-240l-74 100q-193 -129 -530 -129q-242 0 -426.5 36t-321.5 113.5t-208.5 207t-71.5 307.5z" />
<glyph unicode="H" horiz-adv-x="2152" d="M82 0v254h213v778h-213v236h858v-236h-221v-264h706v264h-213v236h859v-236h-222v-778h222v-254h-859v254h213v278h-706v-278h221v-254h-858z" />
<glyph unicode="I" horiz-adv-x="1021" d="M82 0v254h213v778h-213v236h858v-236h-221v-778h221v-254h-858z" />
<glyph unicode="J" horiz-adv-x="1392" d="M66 463h374v-141q0 -60 28 -89.5t75 -29.5q71 0 95 25.5t24 99.5v704h-263v236h908v-236h-222v-686q0 -80 -29.5 -146t-79.5 -110t-117 -74t-140.5 -43.5t-151.5 -13.5q-110 0 -200 30.5t-157.5 91t-105 158t-38.5 224.5z" />
<glyph unicode="K" horiz-adv-x="1873" d="M82 0v254h213v778h-213v236h809v-236h-172v-336l379 344v228h637v-236h-234l-407 -362l491 -416h248v-254h-530l-476 434l-108 -96v-84h172v-254h-809z" />
<glyph unicode="L" horiz-adv-x="1763" d="M82 0v254h213v778h-213v236h858v-236h-221v-778h680v240h282v-494h-1599z" />
<glyph unicode="M" horiz-adv-x="2535" d="M82 0v254h213v778h-213v236h573l602 -707l598 694h599v-223h-213v-778h213v-254h-859v254h222v414l-549 -666h-88l-559 668v-416h294v-254h-833z" />
<glyph unicode="N" d="M82 0v254h213v778h-213v236h620l723 -666v430h-213v236h760v-236h-221v-1032h-268l-862 774v-520h221v-254h-760z" />
<glyph unicode="O" horiz-adv-x="2127" d="M41 641q0 162 79 290.5t218.5 209.5t323.5 123.5t401 42.5t401.5 -42.5t324 -123.5t219 -209.5t79.5 -290.5q0 -178 -70.5 -307t-206.5 -206.5t-320 -114t-425 -36.5t-425.5 36.5t-320.5 114t-207 206.5t-71 307zM541 641q0 -106 41.5 -187.5t114 -131t165 -74.5 t201.5 -25q247 0 386.5 104t139.5 314q0 193 -143.5 297t-380.5 104q-159 0 -274.5 -41t-182.5 -132.5t-67 -227.5z" />
<glyph unicode="P" horiz-adv-x="1761" d="M82 1032v236h987q76 0 135 -3t125 -11.5t115 -23.5t95 -40.5t75.5 -61t47 -86t17.5 -114.5q0 -72 -24 -130t-63.5 -98t-100.5 -69.5t-124 -46.5t-146.5 -27t-156.5 -13t-163 -3h-182v-287h229v-254h-858v254h205v778h-213zM719 756h190q151 0 221.5 12.5t92.5 39.5t22 87 q0 47 -13.5 75.5t-43 41.5t-57.5 16.5t-76 3.5h-336v-276z" />
<glyph unicode="Q" horiz-adv-x="2205" d="M41 637q0 164 79 293.5t218.5 210.5t323.5 123.5t401 42.5q173 0 326 -26t281 -80.5t221 -133t144.5 -188.5t51.5 -242q0 -307 -209 -473l287 -199l-377 -227l-318 260q-171 -33 -405 -33q-241 0 -425.5 37t-320.5 115.5t-207 209t-71 310.5zM541 637q0 -107 41.5 -190 t114 -133t165 -75.5t201.5 -25.5q65 0 133 10l-184 150l260 211l258 -178q59 94 59 231q0 194 -143 298.5t-381 104.5q-243 0 -383.5 -100.5t-140.5 -302.5z" />
<glyph unicode="R" horiz-adv-x="1890" d="M82 1032v236h987q76 0 135 -3t125 -11.5t115 -23.5t95 -40.5t75.5 -61t47 -86t17.5 -114.5q0 -69 -21 -125.5t-56 -95.5t-87 -68t-107 -46.5t-122 -29.5l297 -309h225v-254h-532l-457 541h-100v-287h229v-254h-858v254h205v778h-213zM719 756h190q151 0 221.5 12.5 t92.5 39.5t22 87q0 38 -10.5 63.5t-24.5 39t-43.5 21.5t-50 9.5t-61.5 3.5q-12 0 -36 1t-38 1q-44 0 -131 -1t-131 -1v-276z" />
<glyph unicode="S" horiz-adv-x="1683" d="M82 -8v514h283v-74q0 -60 49 -104t130.5 -66t164.5 -31.5t174 -9.5q49 0 98 6.5t94.5 19.5t74 37.5t28.5 55.5q0 26 -9.5 44.5t-32.5 30.5t-49.5 19t-72 12t-88 8t-109.5 9.5t-125 13.5q-40 5 -80 12.5t-99.5 23.5t-110.5 36.5t-105 53.5t-91.5 72.5t-62 96t-24.5 121.5 q0 83 30 152t83 115t118 79.5t143 52t151 27t147 8.5q137 0 286.5 -41.5t227.5 -95.5v100h282v-493h-282v73q0 47 -45.5 85.5t-117 60.5t-150 33.5t-152.5 11.5q-173 0 -237 -24.5t-64 -100.5q0 -17 11 -29t36.5 -20.5t46.5 -13t61 -11.5q53 -10 135.5 -19t150 -15 t149.5 -20t146.5 -32.5t128 -52.5t105 -80t67.5 -116t26 -158q0 -195 -188.5 -304.5t-565.5 -109.5q-147 0 -274.5 25t-208.5 67v-55h-283z" />
<glyph unicode="T" horiz-adv-x="1970" d="M82 776v492h1806v-492h-282v256h-410v-778h270v-254h-956v254h264v778h-409v-256h-283z" />
<glyph unicode="U" d="M82 1032v236h858v-236h-221v-581q0 -116 82 -170t264 -54q40 0 61 0.5t57 2.5t56.5 5.5t50 11.5t46 19t36 28.5t29.5 39.5t17 52t7 67v579h-213v236h760v-236h-221v-631q0 -61 -20 -120t-71 -118.5t-128 -103.5t-200 -72t-278 -28q-154 0 -283.5 28t-215.5 73t-146 103.5 t-87 118.5t-27 119v631h-213z" />
<glyph unicode="V" horiz-adv-x="1980" d="M20 1030v236h760v-236h-96l342 -594l317 594h-143v236h760v-236h-244l-604 -1032h-264l-664 1032h-164z" />
<glyph unicode="W" horiz-adv-x="2938" d="M20 1030v236h760v-236h-100l324 -594l262 465l-76 129h-162v236h883v-236h-221l295 -588l294 588h-145v236h784v-236h-268l-577 -1032h-269l-374 631l-340 -631h-269l-639 1032h-162z" />
<glyph unicode="X" horiz-adv-x="2004" d="M20 0v236h252l455 382l-502 412h-170v236h736v-236h-56l293 -239l285 239h-103v236h736v-236h-254l-449 -366l569 -428h173v-236h-809v236h55l-299 243l-262 -243h110v-236h-760z" />
<glyph unicode="Y" horiz-adv-x="1980" d="M20 1030v236h760v-236h-69l315 -313l295 313h-121v236h760v-236h-250l-512 -549v-227h221v-254h-858v254h213v205l-586 571h-168z" />
<glyph unicode="Z" horiz-adv-x="1886" d="M82 0v233l1065 799h-727v-256h-283v492h1600v-213l-998 -801h783v240h282v-494h-1722z" />
<glyph unicode="[" horiz-adv-x="1140" d="M113 -207v1680h915v-238h-491v-1182h491v-260h-915z" />
<glyph unicode="\" horiz-adv-x="1095" d="M39 1411h395l621 -1616h-393z" />
<glyph unicode="]" horiz-adv-x="1140" d="M113 53h491v1182h-491v238h915v-1680h-915v260z" />
<glyph unicode="^" d="M565 1532l367 143l375 -143l-47 -156l-328 127l-320 -127z" />
<glyph unicode="_" horiz-adv-x="1245" d="M164 -45h917v-166h-917v166z" />
<glyph unicode="`" horiz-adv-x="471" d="M49 1477l23 198l366 -143l-47 -156z" />
<glyph unicode="a" horiz-adv-x="2103" d="M123 0v254h258l635 1026h305l580 -1026h161v-254h-759v254h98l-45 88h-545l-51 -88h123v-254h-760zM950 575h285l-131 256z" />
<glyph unicode="b" horiz-adv-x="1884" d="M82 0v254h213v778h-213v236h987q76 0 135 -3t125 -11.5t115 -23.5t95 -40.5t75.5 -61t47 -86t17.5 -114.5q0 -118 -96 -201q219 -86 219 -334q0 -75 -24.5 -134.5t-64 -100t-101.5 -70.5t-125 -46.5t-147.5 -26t-155 -12.5t-160.5 -3h-942zM719 254h313q131 0 198 14.5 t90 42.5t23 82q0 102 -63.5 130t-271.5 28h-289v-297zM719 784h469q57 18 57 111q0 47 -13.5 75.5t-43 41.5t-57.5 16.5t-76 3.5h-336v-248z" />
<glyph unicode="c" horiz-adv-x="1933" d="M41 641q0 162 79 290.5t218.5 209.5t323.5 123.5t401 42.5q146 0 289.5 -43.5t242.5 -104.5v111h285v-608h-285v73q0 84 -73 155t-195 111.5t-262 40.5q-159 0 -274.5 -41t-182.5 -132.5t-67 -227.5q0 -106 41.5 -187.5t114 -131t165 -74.5t201.5 -25q415 0 532 283h297 q0 -55 -18 -111.5t-55.5 -117.5t-103.5 -113.5t-153.5 -95t-216 -67t-280.5 -24.5q-241 0 -425.5 36.5t-320.5 114t-207 206.5t-71 307z" />
<glyph unicode="d" horiz-adv-x="1957" d="M82 2v254h213v776h-213v236h917q196 0 353 -36t276 -110t183.5 -195t64.5 -282q0 -162 -60.5 -285.5t-173 -201.5t-268 -117t-350.5 -39h-942zM719 256h313q114 0 189 22.5t118 73t60.5 120t17.5 173.5q0 202 -92 294.5t-317 92.5h-289v-776z" />
<glyph unicode="e" horiz-adv-x="1763" d="M82 0v254h213v778h-213v236h1599v-492h-282v256h-680v-264h467v-236h-467v-278h680v240h282v-494h-1599z" />
<glyph unicode="f" horiz-adv-x="1763" d="M82 0v254h213v778h-213v236h1599v-492h-282v256h-680v-264h467v-236h-467v-278h221v-254h-858z" />
<glyph unicode="g" horiz-adv-x="1953" d="M41 641q0 163 80 291.5t220.5 209.5t325 123t400.5 42q147 0 302 -44.5t251 -103.5v111h285v-608h-285v73q0 84 -73 155t-195 111.5t-262 40.5q-119 0 -218 -24.5t-173.5 -72.5t-116 -125.5t-41.5 -178.5q0 -105 45 -187t122 -131t173 -74.5t206 -25.5q158 0 261.5 40 t138.5 116h-262v235h688v-608h-240l-74 100q-193 -129 -530 -129q-242 0 -426.5 36t-321.5 113.5t-208.5 207t-71.5 307.5z" />
<glyph unicode="h" horiz-adv-x="2152" d="M82 0v254h213v778h-213v236h858v-236h-221v-264h706v264h-213v236h859v-236h-222v-778h222v-254h-859v254h213v278h-706v-278h221v-254h-858z" />
<glyph unicode="i" horiz-adv-x="1021" d="M82 0v254h213v778h-213v236h858v-236h-221v-778h221v-254h-858z" />
<glyph unicode="j" horiz-adv-x="1392" d="M66 463h374v-141q0 -60 28 -89.5t75 -29.5q71 0 95 25.5t24 99.5v704h-261v236h908v-236h-222v-686q0 -99 -45 -176t-120.5 -121.5t-165.5 -67t-189 -22.5q-226 0 -362 127t-139 377z" />
<glyph unicode="k" horiz-adv-x="1873" d="M82 0v254h213v778h-213v236h809v-236h-172v-336l379 344v228h637v-236h-234l-407 -362l491 -416h248v-254h-530l-582 532v-278h170v-254h-809z" />
<glyph unicode="l" horiz-adv-x="1763" d="M82 0v254h213v778h-213v236h858v-236h-221v-778h680v240h282v-494h-1599z" />
<glyph unicode="m" horiz-adv-x="2535" d="M82 0v254h213v778h-213v236h573l602 -707l598 694h599v-223h-213v-778h213v-254h-859v254h222v414l-549 -666h-88l-559 668v-416h294v-254h-833z" />
<glyph unicode="n" d="M82 0v254h213v778h-213v236h620l723 -666v430h-213v236h760v-236h-221v-1032h-268l-862 774v-520h221v-254h-760z" />
<glyph unicode="o" horiz-adv-x="2127" d="M41 641q0 162 79 290.5t218.5 209.5t323.5 123.5t401 42.5t401.5 -42.5t324 -123.5t219 -209.5t79.5 -290.5q0 -178 -70.5 -307t-206.5 -206.5t-320 -114t-425 -36.5t-425.5 36.5t-320.5 114t-207 206.5t-71 307zM541 641q0 -106 41.5 -187.5t114 -131t165 -74.5 t201.5 -25q247 0 386.5 104t139.5 314q0 193 -143.5 297t-380.5 104q-159 0 -274.5 -41t-182.5 -132.5t-67 -227.5z" />
<glyph unicode="p" horiz-adv-x="1761" d="M82 1032v236h987q76 0 135 -3t125 -11.5t115 -23.5t95 -40.5t75.5 -61t47 -86t17.5 -114.5q0 -72 -24 -130t-63.5 -98t-100.5 -69.5t-124 -46.5t-146.5 -27t-156.5 -13t-163 -3h-182v-287h229v-254h-858v254h205v778h-213zM719 756h190q151 0 221.5 12.5t92.5 39.5t22 87 q0 47 -13.5 75.5t-43 41.5t-57.5 16.5t-76 3.5h-336v-276z" />
<glyph unicode="q" horiz-adv-x="2127" d="M41 641q0 162 79 290.5t218.5 209.5t323.5 123.5t401 42.5t401.5 -42.5t324 -123.5t219 -209.5t79.5 -290.5q0 -340 -258 -502q5 -59 28 -93t78 -34q11 0 20 2t16 7.5t12.5 9t10 13.5t7 14.5t5.5 17.5t4 17t4 19t3 17v6.5v10v6.5h137v-136q0 -45 -24.5 -81t-61.5 -57.5 t-85 -36t-90.5 -20t-82.5 -5.5q-82 0 -140.5 6.5t-117 24.5t-97 55.5t-58.5 95.5q-150 -21 -332 -21q-241 0 -425.5 36.5t-320.5 114t-207 206.5t-71 307zM541 641q0 -91 31 -163.5t81.5 -119.5t119.5 -78.5t141.5 -44.5t151.5 -13q165 0 286 50q-26 50 -65.5 63t-125.5 13 h-57v125q18 2 52 6t51.5 5.5t49.5 3t67 1.5q41 0 134.5 -21.5t97.5 -22.5q33 84 33 196q0 193 -143.5 297t-380.5 104q-159 0 -274.5 -41t-182.5 -132.5t-67 -227.5z" />
<glyph unicode="r" horiz-adv-x="1890" d="M82 1032v236q165 0 494 1t493 1q119 0 209.5 -9t168.5 -32.5t127.5 -62t77 -98t27.5 -140.5q0 -69 -21 -125.5t-56 -95.5t-87 -68t-107 -46.5t-122 -29.5q10 -5 45.5 -16.5t63 -24.5t58.5 -35.5t49 -59t18 -83.5q0 -33 1 -54t7 -49.5t17 -44.5t32 -28t51 -12 q47 0 64.5 28t17.5 90v21h137v-135q0 -56 -36 -97.5t-92 -62.5t-110.5 -31t-105.5 -10q-81 0 -139 5.5t-117.5 25t-95.5 54t-59 94t-23 143.5q0 80 -16.5 132.5t-51 80t-77 37.5t-105.5 10h-100v-287h229v-254h-858v254h205v778h-213zM719 756h190q151 0 221.5 12.5 t92.5 39.5t22 87q0 38 -10.5 63.5t-24.5 39t-43.5 21.5t-50 9.5t-61.5 3.5q-76 2 -137 2l-199 -2v-276z" />
<glyph unicode="s" horiz-adv-x="1683" d="M82 -8v514h283v-74q0 -60 49 -104t130.5 -66t164.5 -31.5t174 -9.5q49 0 98 6.5t94.5 19.5t74 37.5t28.5 55.5q0 26 -9.5 44.5t-32.5 30.5t-49.5 19t-72 12t-88 8t-109.5 9.5t-125 13.5q-40 5 -80 12.5t-99.5 23.5t-110.5 36.5t-105 53.5t-91.5 72.5t-62 96t-24.5 121.5 q0 83 30 152t83 115t118 79.5t143 52t151 27t147 8.5q137 0 286.5 -41.5t227.5 -95.5v100h282v-493h-282v73q0 47 -45.5 85.5t-117 60.5t-150 33.5t-152.5 11.5q-173 0 -237 -24.5t-64 -100.5q0 -17 11 -29t36.5 -20.5t46.5 -13t61 -11.5q53 -10 135.5 -19t150 -15 t149.5 -20t146.5 -32.5t128 -52.5t105 -80t67.5 -116t26 -158q0 -195 -188.5 -304.5t-565.5 -109.5q-147 0 -274.5 25t-208.5 67v-55h-283z" />
<glyph unicode="t" horiz-adv-x="1970" d="M82 776v492h1806v-492h-282v256h-410v-778h270v-254h-956v254h264v778h-409v-256h-283z" />
<glyph unicode="u" d="M82 1032v236h858v-236h-221v-581q0 -116 82 -170t264 -54q40 0 61 0.5t57 2.5t56.5 5.5t50 11.5t46 19t36 28.5t29.5 39.5t17 52t7 67v579h-213v236h760v-236h-221v-631q0 -61 -20 -120t-71 -118.5t-128 -103.5t-200 -72t-278 -28q-154 0 -283.5 28t-215.5 73t-146 103.5 t-87 118.5t-27 119v631h-213z" />
<glyph unicode="v" horiz-adv-x="1980" d="M20 1030v236h760v-236h-96l342 -594l317 594h-143v236h760v-236h-244l-604 -1032h-264l-664 1032h-164z" />
<glyph unicode="w" horiz-adv-x="2938" d="M20 1030v236h760v-236h-100l324 -594l262 465l-76 129h-162v236h883v-236h-221l295 -588l294 588h-145v236h784v-236h-268l-577 -1032h-269l-374 631l-340 -631h-269l-639 1032h-162z" />
<glyph unicode="x" horiz-adv-x="2004" d="M20 0v236h252l455 382l-502 412h-170v236h736v-236h-56l293 -239l285 239h-103v236h736v-236h-254l-449 -366l569 -428h173v-236h-809v236h55l-299 243l-262 -243h110v-236h-760z" />
<glyph unicode="y" horiz-adv-x="1980" d="M20 1030v236h760v-236h-69l315 -313l295 313h-121v236h760v-236h-250l-512 -549v-227h221v-254h-858v254h213v205l-586 571h-168z" />
<glyph unicode="z" horiz-adv-x="1886" d="M82 0v233l1065 799h-727v-256h-283v492h1600v-213l-998 -801h783v240h282v-494h-1722z" />
<glyph unicode="{" horiz-adv-x="1120" d="M72 610v80q24 32 60.5 67t57.5 59.5t43.5 67.5t32.5 113t10 173q0 41 11 81t43.5 85.5t83 79.5t137.5 56.5t199 22.5q68 0 94.5 -0.5t76.5 -5.5t128 -16v-238q-28 0 -109 10.5t-124 10.5q-81 0 -128.5 -33t-48.5 -117q0 -46 -3.5 -87t-8 -72.5t-13.5 -61t-16 -49t-20 -40 t-21 -32t-23 -26.5t-22 -21t-23 -18.5t-20 -16.5v-80q16 -12 39 -29.5t33 -24.5t25 -22.5t20.5 -26.5t14.5 -33.5t11.5 -46t6.5 -62t5 -83.5t1 -108q1 -153 205 -153q50 0 128 10t91 10v-240q-21 -3 -61.5 -10t-52 -8.5t-38.5 -5.5t-42 -4.5t-38 -1.5t-51 -1 q-237 0 -363.5 82.5t-126.5 214.5q0 90 -7.5 157.5t-17.5 110t-32 83.5t-39.5 63t-51.5 64t-56 73z" />
<glyph unicode="|" horiz-adv-x="1079" d="M410 -205v1616h260v-1616h-260z" />
<glyph unicode="}" horiz-adv-x="1120" d="M72 33q13 0 91 -10t128 -10q205 0 205 153q0 63 1 108t5 83.5t6 62t11 46t14.5 33.5t21 26.5t25 22.5t33 24.5t38.5 29.5v80q-4 4 -20 16.5t-23 18.5t-22 21t-23 26.5t-21 32t-20 40t-16 49t-13.5 61t-8 72.5t-3.5 87q0 85 -47 117.5t-129 32.5q-43 0 -124 -10.5 t-109 -10.5v238q78 11 128 16t76.5 5.5t94.5 0.5q92 0 167.5 -14.5t125.5 -40t86.5 -57t56 -69t28.5 -73t9 -71.5v-5q1 -103 11.5 -172.5t32.5 -111.5t43.5 -66t57.5 -58.5t60 -66.5v-80q-22 -31 -56 -72.5t-51.5 -64t-39.5 -63.5t-32.5 -83.5t-18 -110t-7.5 -157.5 q0 -132 -126.5 -214.5t-363.5 -82.5q-28 0 -51 1t-38.5 2t-41 4.5t-38 5t-52 8t-61.5 10.5v240z" />
<glyph unicode="~" horiz-adv-x="1085" d="M86 901q45 48 119 83.5t147 35.5q49 0 106 -23t100 -50t93.5 -50t89.5 -23q50 0 74 0.5t42 6t22.5 10t19.5 20.5t31 29l71 -106q-105 -113 -272 -113q-63 0 -123.5 22.5t-100.5 50t-92.5 50t-100.5 22.5h-3q-23 -1 -39 -3t-26 -4t-21 -10t-16.5 -12.5t-20.5 -20.5 t-24 -25z" />
<glyph unicode="&#xa1;" horiz-adv-x="702" d="M82 1092q0 92 79.5 151.5t186.5 59.5q106 0 184 -59.5t78 -151.5q0 -91 -78.5 -156.5t-183.5 -65.5q-107 0 -186.5 65.5t-79.5 156.5zM92 -33l53 846h422l54 -846h-529z" />
<glyph unicode="&#xa2;" horiz-adv-x="1521" d="M113 442q0 84 30.5 155.5t85.5 124.5t132.5 92t170 61t199.5 30v127h199v-133q160 -23 270 -94v78h199v-428h-199v53q0 90 -110 152.5t-261 62.5q-171 0 -268.5 -70t-97.5 -211q0 -99 51 -166t131 -96.5t184 -29.5q138 0 234.5 48.5t136.5 149.5h209q0 -42 -14.5 -86 t-49.5 -91t-88 -85t-137.5 -66.5t-189.5 -37.5v-199h-199v197q-618 29 -618 462z" />
<glyph unicode="&#xa3;" horiz-adv-x="1679" d="M72 494v235h223q-31 79 -31 143q0 141 81.5 239.5t224 146t335.5 47.5q88 0 176.5 -14.5t178 -50t157.5 -87.5t111 -134.5t43 -184.5h-438v23q0 47 -12 81t-32 54t-51 32t-63 16t-74 4q-106 0 -147 -37t-41 -141q0 -21 6 -43.5t17.5 -51.5t15.5 -42h448v-235h-444 q-9 -44 -42 -88.5t-79 -75.5q5 0 60 5t73 5q91 0 233 -37t166 -37q44 0 44 81q0 32 -5 87h385q0 -36 8.5 -100.5t8.5 -112.5q0 -112 -85 -175.5t-245 -63.5h-68q-58 6 -193 39.5t-212 33.5q-39 0 -78.5 -1.5t-71 -3.5t-74 -7t-66.5 -7.5t-71 -11t-65.5 -11.5t-71.5 -13.5 t-67 -13.5t-74 -15.5t-72 -15.5v336q23 18 66.5 47t66.5 46.5t49 47t39 62.5h-243z" />
<glyph unicode="&#xa5;" horiz-adv-x="1980" />
<glyph unicode="&#xa6;" horiz-adv-x="1079" d="M410 -205v756h258v-756h-258zM410 815v596h260v-596h-260z" />
<glyph unicode="&#xa8;" d="M641 1468q0 43 42.5 74t102.5 31t103 -31t43 -72q0 -43 -43 -73.5t-103 -30.5t-102.5 30.5t-42.5 73.5v-2zM1098 1468q0 43 42.5 74t102.5 31t103 -31t43 -72q0 -43 -43 -73.5t-103 -30.5t-102.5 30.5t-42.5 73.5v-2z" />
<glyph unicode="&#xa9;" horiz-adv-x="2129" d="M143 580q0 147 71 262.5t196.5 188.5t291.5 111t361 38q196 0 362.5 -38t292.5 -111t197.5 -188.5t71.5 -262.5q0 -129 -42 -229.5t-119.5 -169.5t-192.5 -114t-255 -65t-313 -20t-313 20t-255 65t-192.5 114t-119.5 169.5t-42 229.5zM514 582q0 -112 43.5 -198t120 -138 t174 -78.5t211.5 -26.5q259 0 406 110t147 331q0 135 -71 230.5t-194 142t-286 46.5q-256 0 -403.5 -104t-147.5 -315zM698 580q0 87 58 149t142.5 89t182.5 27q146 0 240 -57v43h113v-243h-113v30q0 52 -68 88.5t-153 36.5t-143 -40.5t-58 -122.5q0 -83 59 -124.5 t150 -41.5q167 0 213 112h119q0 -34 -17 -68t-53 -67.5t-104 -54.5t-158 -21q-410 0 -410 265z" />
<glyph unicode="&#xab;" horiz-adv-x="1949" d="M61 471l764 514l244 -106l-526 -410l526 -410l-244 -104zM881 471l764 514l243 -106l-526 -410l526 -410l-243 -104z" />
<glyph unicode="&#xad;" horiz-adv-x="1226" d="M340 567v166h549v-166h-549z" />
<glyph unicode="&#xae;" horiz-adv-x="2129" d="M143 580q0 147 71 262.5t196.5 188.5t291.5 111t361 38t361.5 -38t293 -111t198 -189t71.5 -262q0 -129 -42 -229.5t-119.5 -169.5t-192.5 -114t-255 -65t-313 -20t-313 20t-255 65t-192.5 114t-119.5 169.5t-42 229.5zM514 582q0 -112 43.5 -198t120 -138t174 -78.5 t211.5 -26.5q259 0 406 110t147 331q0 135 -71 230.5t-194 142t-286 46.5q-256 0 -403.5 -104t-147.5 -315zM735 782v95h535q47 -12 75.5 -48t28.5 -90q0 -119 -157 -145l18 -6t25 -10t22.5 -14t19.5 -24t7 -34q0 -23 2 -36.5t12.5 -26.5t30.5 -13q19 0 25.5 14t6.5 43h54 v-55q0 -29 -25 -48t-54 -25.5t-58 -6.5q-63 0 -101 13t-52 33.5t-18 45t-4.5 49t-6 45t-27.5 33.5t-64 13h-41v-113h92v-102h-344v102h82v311h-84zM989 672h76q89 0 112 10t23 45t-19 45t-59 10h-133v-110z" />
<glyph unicode="&#xaf;" d="M588 1413v160h887v-160h-887z" />
<glyph unicode="&#xb0;" horiz-adv-x="1073" d="M82 1028q0 112 67.5 202t171.5 136.5t220 46.5t218.5 -47.5t167 -137t64.5 -200.5q0 -115 -63.5 -203t-164.5 -132t-222 -44q-119 0 -223 45t-170 133.5t-66 200.5zM379 1016q0 -75 45.5 -132t118.5 -57t112 57t39 132q0 231 -151 231q-60 0 -98.5 -37t-52 -86 t-13.5 -108z" />
<glyph unicode="&#xb1;" horiz-adv-x="1245" d="M164 78h917v-166h-917v166zM164 539v223h319v235h283v-235h315v-223h-315v-238h-283v238h-319z" />
<glyph unicode="&#xb4;" horiz-adv-x="471" d="M41 1532l367 143l22 -198l-342 -101z" />
<glyph unicode="&#xb7;" horiz-adv-x="817" d="M121 807q0 90 85.5 152.5t203.5 62.5q117 0 201.5 -62.5t84.5 -152.5q0 -88 -85 -145.5t-201 -57.5q-118 0 -203.5 57.5t-85.5 145.5z" />
<glyph unicode="&#xb8;" horiz-adv-x="1679" d="M528 -248h185q0 -32 25 -52t61.5 -23.5t72.5 2.5t61 25.5t25 46.5q0 28 -3 42t-15.5 28t-40 19.5t-74.5 5.5q-32 0 -59.5 -10.5t-40 -21.5t-29.5 -29h-135v313h129v-188q64 41 154 41q50 0 99 -9.5t98 -30t79.5 -61.5t30.5 -96q0 -64 -47.5 -107.5t-118.5 -61t-162 -17.5 q-48 0 -94 8t-94 26.5t-77.5 57t-29.5 92.5z" />
<glyph unicode="&#xb9;" horiz-adv-x="839" d="M246 1118v92q49 4 69 22.5t25 61.5h168v-405h86v-103h-344v103h88v229h-92z" />
<glyph unicode="&#xbb;" horiz-adv-x="1949" d="M61 59l527 410l-527 410l244 106l764 -514l-764 -516zM881 59l526 410l-526 410l243 106l764 -514l-764 -516z" />
<glyph unicode="&#xbc;" horiz-adv-x="1536" d="M61 123l1143 1143l185 -183l-1143 -1142zM244 1118v92q49 4 69 22.5t25 61.5h168v-405h86v-103h-344v103h88v229h-92zM827 217l353 291h157v-275h138v-102h-138v-29h88v-102h-344v102h88v29h-282zM1063 233h106v89z" />
<glyph unicode="&#xbd;" horiz-adv-x="1536" d="M61 123l1143 1143l185 -183l-1143 -1142zM244 1118v92q49 4 69 22.5t25 61.5h168v-405h86v-103h-344v103h88v229h-92zM852 0v86q0 121 283 193q76 18 97 30.5t21 44.5q0 14 -2 22t-11 19.5t-32 17t-61 5.5q-98 0 -98 -84h-183q0 50 28.5 88.5t74 59t92.5 30.5t92 10 q295 0 295 -174q0 -72 -43.5 -106.5t-147.5 -69.5q-24 -7 -83 -21t-89.5 -25t-40.5 -24h318v95h113v-197h-623z" />
<glyph unicode="&#xbe;" horiz-adv-x="1536" d="M61 123l1143 1143l185 -183l-1143 -1142zM131 971h184q0 -38 34.5 -62t88.5 -24h7q112 0 112 71q0 22 -19 33.5t-44 14t-70 2.5h-37v116h43t35.5 1.5t32 4t22.5 7.5t16.5 13t4.5 19t-2.5 19t-11.5 18t-31.5 15.5t-57.5 5.5q-100 0 -100 -80h-180q0 49 25.5 85t67.5 55 t85.5 27.5t89.5 8.5q291 0 291 -158q0 -59 -58 -82q91 -45 91 -127q0 -174 -322 -174q-49 0 -97.5 9.5t-95 30t-75.5 60t-29 91.5zM827 217l353 291h157v-275h138v-102h-138v-29h88v-102h-344v102h88v29h-282zM1063 233h106v89z" />
<glyph unicode="&#xbf;" horiz-adv-x="1615" d="M123 356q1 69 25.5 122t71.5 89t96.5 58t119.5 43q96 28 118 40q65 33 73 110q2 14 2 30h473q0 -194 -82 -266q-58 -51 -148.5 -90t-148.5 -48q-87 -14 -117.5 -39t-30.5 -61q0 -15 0.5 -22t4.5 -22t12.5 -23t26 -19t43 -16.5t65 -10t90.5 -4.5q108 0 163.5 48t55.5 163 h459q0 -102 -45.5 -184.5t-117.5 -134.5t-165.5 -87.5t-183.5 -50t-178 -14.5q-350 0 -516.5 87t-165.5 302zM575 1096q0 91 78.5 150t184.5 59t185 -59t79 -150q0 -93 -78.5 -157.5t-185.5 -64.5q-106 0 -184.5 65t-78.5 157z" />
<glyph unicode="&#xc0;" horiz-adv-x="2021" d="M41 0v254h258l635 1008l266 69l619 -1077h161v-254h-759v254h98l-45 88h-545l-51 -88h123v-254h-760zM868 575h285l-131 256zM868 1477l23 198l366 -143l-47 -156z" />
<glyph unicode="&#xc1;" horiz-adv-x="2021" d="M41 0v254h258l635 1008l266 69l619 -1077h161v-254h-759v254h98l-45 88h-545l-51 -88h123v-254h-760zM860 1532l367 143l22 -198l-342 -101zM868 575h285l-131 256z" />
<glyph unicode="&#xc2;" horiz-adv-x="2021" d="M41 0v254h258l635 1008l266 69l619 -1077h161v-254h-759v254h98l-45 88h-545l-51 -88h123v-254h-760zM709 1532l366 143l375 -143l-47 -156l-328 127l-319 -127zM868 575h285l-131 256z" />
<glyph unicode="&#xc3;" horiz-adv-x="2021" d="M41 0v254h258l635 1008l266 69l619 -1077h161v-254h-759v254h98l-45 88h-545l-51 -88h123v-254h-760zM868 575h285l-131 256z" />
<glyph unicode="&#xc4;" horiz-adv-x="2021" d="M41 0v254h258l635 1008l266 69l619 -1077h161v-254h-759v254h98l-45 88h-545l-51 -88h123v-254h-760zM764 1468q0 43 42.5 74t102.5 31t103 -31t43 -72q0 -43 -43 -73.5t-103 -30.5t-102.5 30.5t-42.5 73.5v-2zM868 575h285l-131 256zM1221 1468q0 43 42.5 74t102.5 31 t102.5 -30.5t42.5 -72.5q0 -43 -42.5 -73.5t-102.5 -30.5t-102.5 30.5t-42.5 73.5v-2z" />
<glyph unicode="&#xc5;" horiz-adv-x="2021" d="M41 0v254h258l635 1008l266 69l619 -1077h161v-254h-759v254h98l-45 88h-545l-51 -88h123v-254h-760zM868 575h285l-131 256z" />
<glyph unicode="&#xc7;" horiz-adv-x="1933" d="M41 641q0 162 79 290.5t218.5 209.5t323.5 123.5t401 42.5q146 0 289.5 -43.5t242.5 -104.5v111h285v-608h-285v73q0 84 -73 155t-195 111.5t-262 40.5q-159 0 -274.5 -41t-182.5 -132.5t-67 -227.5q0 -106 41.5 -187.5t114 -131t165 -74.5t201.5 -25q415 0 532 283h297 q0 -55 -18 -111.5t-55.5 -117.5t-103.5 -113.5t-153.5 -95t-216 -67t-280.5 -24.5q-241 0 -425.5 36.5t-320.5 114t-207 206.5t-71 307zM918 -248h184q0 -32 25.5 -52t61.5 -23.5t72 2.5t61.5 25.5t25.5 46.5q0 28 -3 42.5t-16 28t-40.5 19t-74.5 5.5q-32 0 -59.5 -10.5 t-40 -21.5t-29.5 -29h-135v313h129v-188q64 41 154 41q50 0 99 -9.5t98 -30t79.5 -61.5t30.5 -96q0 -64 -47.5 -107.5t-118.5 -61t-162 -17.5q-48 0 -94 8t-93.5 26.5t-77 57t-29.5 92.5z" />
<glyph unicode="&#xc8;" horiz-adv-x="1763" d="M82 0v254h213v778h-213v236h1599v-492h-282v256h-680v-264h467v-236h-467v-278h680v240h282v-494h-1599zM664 1477l22 198l367 -143l-47 -156z" />
<glyph unicode="&#xc9;" horiz-adv-x="1763" d="M82 0v254h213v778h-213v236h1599v-492h-282v256h-680v-264h467v-236h-467v-278h680v240h282v-494h-1599zM717 1532l366 143l23 -198l-342 -101z" />
<glyph unicode="&#xca;" horiz-adv-x="1763" d="M82 0v254h213v778h-213v236h1599v-492h-282v256h-680v-264h467v-236h-467v-278h680v240h282v-494h-1599zM565 1532l367 143l375 -143l-47 -156l-328 127l-320 -127z" />
<glyph unicode="&#xcb;" horiz-adv-x="1763" d="M82 0v254h213v778h-213v236h1599v-492h-282v256h-680v-264h467v-236h-467v-278h680v240h282v-494h-1599zM641 1468q0 43 42.5 74t102.5 31t103 -31t43 -72q0 -43 -43 -73.5t-103 -30.5t-102.5 30.5t-42.5 73.5v-2zM1098 1468q0 43 42.5 74t102.5 31t103 -31t43 -72 q0 -43 -43 -73.5t-103 -30.5t-102.5 30.5t-42.5 73.5v-2z" />
<glyph unicode="&#xcc;" horiz-adv-x="1021" d="M82 0v254h213v778h-213v236h858v-236h-221v-778h221v-254h-858zM315 1477l23 198l367 -143l-48 -156z" />
<glyph unicode="&#xcd;" horiz-adv-x="1021" d="M82 0v254h213v778h-213v236h858v-236h-221v-778h221v-254h-858zM246 1532l366 143l23 -198l-342 -101z" />
<glyph unicode="&#xce;" horiz-adv-x="1021" d="M82 0v254h213v778h-213v236h858v-236h-221v-778h221v-254h-858zM156 1532l366 143l375 -143l-47 -156l-328 127l-319 -127z" />
<glyph unicode="&#xcf;" horiz-adv-x="1021" d="M82 0v254h213v778h-213v236h858v-236h-221v-778h221v-254h-858zM190 1468q0 43 43 74t103 31t102.5 -30.5t42.5 -72.5q0 -43 -42.5 -73.5t-102.5 -30.5t-103 30.5t-43 73.5v-2zM647 1468q0 43 43 74t103 31t102.5 -30.5t42.5 -72.5q0 -43 -42.5 -73.5t-102.5 -30.5 t-103 30.5t-43 73.5v-2z" />
<glyph unicode="&#xd0;" horiz-adv-x="1957" d="M70 567v166h868v-166h-868zM82 2v254h213v776h-213v236h917q196 0 353 -36t276 -110t183.5 -195t64.5 -282q0 -162 -60.5 -285.5t-173 -201.5t-268 -117t-350.5 -39h-942zM719 256h313q114 0 189 22.5t118 73t60.5 120t17.5 173.5q0 202 -92 294.5t-317 92.5h-289v-776z " />
<glyph unicode="&#xd1;" d="M82 0v254h213v778h-213v236h620l723 -666v430h-213v236h760v-236h-221v-1032h-268l-862 774v-520h221v-254h-760zM571 1516q45 48 119 83t148 35q49 0 106 -22.5t100 -50t93.5 -50t89.5 -22.5q80 0 107 9.5t81 55.5l72 -106q-105 -113 -273 -113q-63 0 -126.5 23t-106 50 t-93.5 50t-93 23q-23 0 -39 -2t-26.5 -4t-21.5 -10t-16.5 -13.5t-20 -21t-24.5 -25.5z" />
<glyph unicode="&#xd2;" horiz-adv-x="2127" d="M41 641q0 162 79 290.5t218.5 209.5t323.5 123.5t401 42.5t401.5 -42.5t324 -123.5t219 -209.5t79.5 -290.5q0 -178 -70.5 -307t-206.5 -206.5t-320 -114t-425 -36.5t-425.5 36.5t-320.5 114t-207 206.5t-71 307zM541 641q0 -106 41.5 -187.5t114 -131t165 -74.5 t201.5 -25q247 0 386.5 104t139.5 314q0 193 -143.5 297t-380.5 104q-159 0 -274.5 -41t-182.5 -132.5t-67 -227.5zM868 1477l23 198l366 -143l-47 -156z" />
<glyph unicode="&#xd3;" horiz-adv-x="2127" d="M41 641q0 162 79 290.5t218.5 209.5t323.5 123.5t401 42.5t401.5 -42.5t324 -123.5t219 -209.5t79.5 -290.5q0 -178 -70.5 -307t-206.5 -206.5t-320 -114t-425 -36.5t-425.5 36.5t-320.5 114t-207 206.5t-71 307zM541 641q0 -106 41.5 -187.5t114 -131t165 -74.5 t201.5 -25q247 0 386.5 104t139.5 314q0 193 -143.5 297t-380.5 104q-159 0 -274.5 -41t-182.5 -132.5t-67 -227.5zM860 1532l367 143l22 -198l-342 -101z" />
<glyph unicode="&#xd4;" horiz-adv-x="2127" d="M41 641q0 162 79 290.5t218.5 209.5t323.5 123.5t401 42.5t401.5 -42.5t324 -123.5t219 -209.5t79.5 -290.5q0 -178 -70.5 -307t-206.5 -206.5t-320 -114t-425 -36.5t-425.5 36.5t-320.5 114t-207 206.5t-71 307zM541 641q0 -106 41.5 -187.5t114 -131t165 -74.5 t201.5 -25q247 0 386.5 104t139.5 314q0 193 -143.5 297t-380.5 104q-159 0 -274.5 -41t-182.5 -132.5t-67 -227.5zM688 1532l367 143l375 -143l-48 -156l-327 127l-320 -127z" />
<glyph unicode="&#xd5;" horiz-adv-x="2127" d="M41 641q0 162 79 290.5t218.5 209.5t323.5 123.5t401 42.5t401.5 -42.5t324 -123.5t219 -209.5t79.5 -290.5q0 -178 -70.5 -307t-206.5 -206.5t-320 -114t-425 -36.5t-425.5 36.5t-320.5 114t-207 206.5t-71 307zM541 641q0 -106 41.5 -187.5t114 -131t165 -74.5 t201.5 -25q247 0 386.5 104t139.5 314q0 193 -143.5 297t-380.5 104q-159 0 -274.5 -41t-182.5 -132.5t-67 -227.5zM571 1516q45 48 119 83t148 35q49 0 106 -22.5t100 -50t93.5 -50t89.5 -22.5q80 0 107 9.5t81 55.5l72 -106q-105 -113 -273 -113q-63 0 -126.5 23t-106 50 t-93.5 50t-93 23q-23 0 -39 -2t-26.5 -4t-21.5 -10t-16.5 -13.5t-20 -21t-24.5 -25.5z" />
<glyph unicode="&#xd6;" horiz-adv-x="2127" d="M41 641q0 162 79 290.5t218.5 209.5t323.5 123.5t401 42.5t401.5 -42.5t324 -123.5t219 -209.5t79.5 -290.5q0 -178 -70.5 -307t-206.5 -206.5t-320 -114t-425 -36.5t-425.5 36.5t-320.5 114t-207 206.5t-71 307zM541 641q0 -106 41.5 -187.5t114 -131t165 -74.5 t201.5 -25q247 0 386.5 104t139.5 314q0 193 -143.5 297t-380.5 104q-159 0 -274.5 -41t-182.5 -132.5t-67 -227.5z" />
<glyph unicode="&#xd7;" horiz-adv-x="1234" d="M82 428l225 224l-225 221l207 204l225 -221l221 221l205 -204l-221 -221l225 -224l-207 -205l-225 224l-225 -224z" />
<glyph unicode="&#xd9;" d="M82 1032v236h858v-236h-221v-581q0 -116 82 -170t264 -54q40 0 61 0.5t57 2.5t56.5 5.5t50 11.5t46 19t36 28.5t29.5 39.5t17 52t7 67v579h-213v236h760v-236h-221v-631q0 -61 -20 -120t-71 -118.5t-128 -103.5t-200 -72t-278 -28q-154 0 -283.5 28t-215.5 73t-146 103.5 t-87 118.5t-27 119v631h-213zM868 1477l23 198l366 -143l-47 -156z" />
<glyph unicode="&#xda;" d="M82 1032v236h858v-236h-221v-581q0 -116 82 -170t264 -54q40 0 61 0.5t57 2.5t56.5 5.5t50 11.5t46 19t36 28.5t29.5 39.5t17 52t7 67v579h-213v236h760v-236h-221v-631q0 -61 -20 -120t-71 -118.5t-128 -103.5t-200 -72t-278 -28q-154 0 -283.5 28t-215.5 73t-146 103.5 t-87 118.5t-27 119v631h-213zM860 1532l367 143l22 -198l-342 -101z" />
<glyph unicode="&#xdb;" d="M82 1032v236h858v-236h-221v-581q0 -116 82 -170t264 -54q40 0 61 0.5t57 2.5t56.5 5.5t50 11.5t46 19t36 28.5t29.5 39.5t17 52t7 67v579h-213v236h760v-236h-221v-631q0 -61 -20 -120t-71 -118.5t-128 -103.5t-200 -72t-278 -28q-154 0 -283.5 28t-215.5 73t-146 103.5 t-87 118.5t-27 119v631h-213zM729 1532l367 143l374 -143l-47 -156l-327 127l-320 -127z" />
<glyph unicode="&#xdc;" d="M82 1032v236h858v-236h-221v-581q0 -116 82 -170t264 -54q40 0 61 0.5t57 2.5t56.5 5.5t50 11.5t46 19t36 28.5t29.5 39.5t17 52t7 67v579h-213v236h760v-236h-221v-631q0 -61 -20 -120t-71 -118.5t-128 -103.5t-200 -72t-278 -28q-154 0 -283.5 28t-215.5 73t-146 103.5 t-87 118.5t-27 119v631h-213zM743 1468q0 43 43 74t103 31t102.5 -30.5t42.5 -72.5q0 -43 -42.5 -73.5t-102.5 -30.5t-103 30.5t-43 73.5v-2zM1200 1468q0 43 43 74t103 31t102.5 -30.5t42.5 -72.5q0 -43 -42.5 -73.5t-102.5 -30.5t-103 30.5t-43 73.5v-2z" />
<glyph unicode="&#xdd;" horiz-adv-x="1980" d="M20 1030v236h760v-236h-69l315 -313l295 313h-121v236h760v-236h-250l-512 -549v-227h221v-254h-858v254h213v205l-586 571h-168zM860 1532l367 143l22 -198l-342 -101z" />
<glyph unicode="&#xe0;" horiz-adv-x="2021" d="M123 0v254h258l635 1026h305l580 -1026h161v-254h-759v254h98l-45 88h-545l-51 -88h123v-254h-760zM950 575h285l-131 256zM991 1477l23 198l366 -143l-47 -156z" />
<glyph unicode="&#xe1;" horiz-adv-x="2021" d="M123 0v254h258l635 1026h305l580 -1026h161v-254h-759v254h98l-45 88h-545l-51 -88h123v-254h-760zM950 575h285l-131 256zM983 1532l367 143l22 -198l-342 -101z" />
<glyph unicode="&#xe2;" horiz-adv-x="2021" d="M123 0v254h258l635 1026h305l580 -1026h161v-254h-759v254h98l-45 88h-545l-51 -88h123v-254h-760zM791 1532l366 143l375 -143l-47 -156l-328 127l-319 -127zM950 575h285l-131 256z" />
<glyph unicode="&#xe3;" horiz-adv-x="2021" d="M123 0v254h258l635 1026h305l580 -1026h161v-254h-759v254h98l-45 88h-545l-51 -88h123v-254h-760zM694 1516q45 48 119 83t148 35q49 0 106 -22.5t100 -50t93.5 -50t89.5 -22.5q80 0 107 9.5t81 55.5l72 -106q-105 -113 -273 -113q-63 0 -126.5 23t-106 50t-93.5 50 t-93 23q-23 0 -39 -2t-26.5 -4t-21.5 -10t-16.5 -13.5t-20 -21t-24.5 -25.5zM950 575h285l-131 256z" />
<glyph unicode="&#xe4;" horiz-adv-x="2021" d="M123 0v254h258l635 1026h305l580 -1026h161v-254h-759v254h98l-45 88h-545l-51 -88h123v-254h-760zM805 1468q0 43 42.5 74t102.5 31t103 -31t43 -72q0 -43 -43 -73.5t-103 -30.5t-102.5 30.5t-42.5 73.5v-2zM950 575h285l-131 256zM1262 1468q0 43 42.5 74t102.5 31 t102.5 -30.5t42.5 -72.5q0 -43 -42.5 -73.5t-102.5 -30.5t-102.5 30.5t-42.5 73.5v-2z" />
<glyph unicode="&#xe5;" horiz-adv-x="2021" d="M123 0v254h258l635 1026h305l580 -1026h161v-254h-759v254h98l-45 88h-545l-51 -88h123v-254h-760zM950 575h285l-131 256z" />
<glyph unicode="&#xe7;" horiz-adv-x="1933" d="M41 641q0 162 79 290.5t218.5 209.5t323.5 123.5t401 42.5q146 0 289.5 -43.5t242.5 -104.5v111h285v-608h-285v73q0 84 -73 155t-195 111.5t-262 40.5q-159 0 -274.5 -41t-182.5 -132.5t-67 -227.5q0 -106 41.5 -187.5t114 -131t165 -74.5t201.5 -25q415 0 532 283h297 q0 -55 -18 -111.5t-55.5 -117.5t-103.5 -113.5t-153.5 -95t-216 -67t-280.5 -24.5q-241 0 -425.5 36.5t-320.5 114t-207 206.5t-71 307zM897 -248h184q0 -32 25.5 -52t61.5 -23.5t72 2.5t61.5 25.5t25.5 46.5q0 28 -3 42t-15.5 28t-40 19.5t-74.5 5.5q-32 0 -59.5 -10.5 t-40 -21.5t-29.5 -29h-135v313h129v-188q64 41 153 41q50 0 99.5 -9.5t98.5 -30t79.5 -61.5t30.5 -96q0 -64 -47.5 -107.5t-118.5 -61t-162 -17.5q-48 0 -94 8t-94 26.5t-77.5 57t-29.5 92.5z" />
<glyph unicode="&#xe8;" horiz-adv-x="1763" d="M82 0v254h213v778h-213v236h1599v-492h-282v256h-680v-264h467v-236h-467v-278h680v240h282v-494h-1599zM725 1477l23 198l366 -143l-47 -156z" />
<glyph unicode="&#xe9;" horiz-adv-x="1763" d="M82 0v254h213v778h-213v236h1599v-492h-282v256h-680v-264h467v-236h-467v-278h680v240h282v-494h-1599zM737 1532l367 143l22 -198l-342 -101z" />
<glyph unicode="&#xea;" horiz-adv-x="1763" d="M82 0v254h213v778h-213v236h1599v-492h-282v256h-680v-264h467v-236h-467v-278h680v240h282v-494h-1599zM565 1532l367 143l375 -143l-47 -156l-328 127l-320 -127z" />
<glyph unicode="&#xeb;" horiz-adv-x="1763" d="M82 0v254h213v778h-213v236h1599v-492h-282v256h-680v-264h467v-236h-467v-278h680v240h282v-494h-1599zM641 1468q0 43 42.5 74t102.5 31t103 -31t43 -72q0 -43 -43 -73.5t-103 -30.5t-102.5 30.5t-42.5 73.5v-2zM1098 1468q0 43 42.5 74t102.5 31t103 -31t43 -72 q0 -43 -43 -73.5t-103 -30.5t-102.5 30.5t-42.5 73.5v-2z" />
<glyph unicode="&#xec;" horiz-adv-x="1021" d="M82 0v254h213v778h-213v236h858v-236h-221v-778h221v-254h-858zM356 1477l23 198l366 -143l-47 -156z" />
<glyph unicode="&#xed;" horiz-adv-x="1021" d="M82 0v254h213v778h-213v236h858v-236h-221v-778h221v-254h-858zM287 1532l366 143l23 -198l-342 -101z" />
<glyph unicode="&#xee;" horiz-adv-x="1021" d="M82 0v254h213v778h-213v236h858v-236h-221v-778h221v-254h-858zM156 1532l366 143l375 -143l-47 -156l-328 127l-319 -127z" />
<glyph unicode="&#xef;" horiz-adv-x="1021" d="M82 0v254h213v778h-213v236h858v-236h-221v-778h221v-254h-858zM170 1468q0 43 42.5 74t102.5 31t103 -31t43 -72q0 -43 -43 -73.5t-103 -30.5t-102.5 30.5t-42.5 73.5v-2zM627 1468q0 43 42.5 74t102.5 31t103 -31t43 -72q0 -43 -43 -73.5t-103 -30.5t-102.5 30.5 t-42.5 73.5v-2z" />
<glyph unicode="&#xf0;" horiz-adv-x="1957" d="M82 2v254h213v776h-213v236h917q196 0 353 -36t276 -110t183.5 -195t64.5 -282q0 -162 -60.5 -285.5t-173 -201.5t-268 -117t-350.5 -39h-942zM90 567v166h868v-166h-868zM719 256h313q114 0 189 22.5t118 73t60.5 120t17.5 173.5q0 202 -92 294.5t-317 92.5h-289v-776z " />
<glyph unicode="&#xf1;" d="M82 0v254h213v778h-213v236h620l723 -666v430h-213v236h760v-236h-221v-1032h-268l-862 774v-520h221v-254h-760zM571 1516q45 48 119 83t148 35q49 0 106 -22.5t100 -50t93.5 -50t89.5 -22.5q80 0 107 9.5t81 55.5l72 -106q-105 -113 -273 -113q-63 0 -126.5 23t-106 50 t-93.5 50t-93 23q-23 0 -39 -2t-26.5 -4t-21.5 -10t-16.5 -13.5t-20 -21t-24.5 -25.5z" />
<glyph unicode="&#xf2;" horiz-adv-x="2127" d="M41 641q0 162 79 290.5t218.5 209.5t323.5 123.5t401 42.5t401.5 -42.5t324 -123.5t219 -209.5t79.5 -290.5q0 -178 -70.5 -307t-206.5 -206.5t-320 -114t-425 -36.5t-425.5 36.5t-320.5 114t-207 206.5t-71 307zM541 641q0 -106 41.5 -187.5t114 -131t165 -74.5 t201.5 -25q247 0 386.5 104t139.5 314q0 193 -143.5 297t-380.5 104q-159 0 -274.5 -41t-182.5 -132.5t-67 -227.5zM868 1477l23 198l366 -143l-47 -156z" />
<glyph unicode="&#xf3;" horiz-adv-x="2127" d="M41 641q0 162 79 290.5t218.5 209.5t323.5 123.5t401 42.5t401.5 -42.5t324 -123.5t219 -209.5t79.5 -290.5q0 -178 -70.5 -307t-206.5 -206.5t-320 -114t-425 -36.5t-425.5 36.5t-320.5 114t-207 206.5t-71 307zM541 641q0 -106 41.5 -187.5t114 -131t165 -74.5 t201.5 -25q247 0 386.5 104t139.5 314q0 193 -143.5 297t-380.5 104q-159 0 -274.5 -41t-182.5 -132.5t-67 -227.5zM860 1532l367 143l22 -198l-342 -101z" />
<glyph unicode="&#xf4;" horiz-adv-x="2127" d="M41 641q0 162 79 290.5t218.5 209.5t323.5 123.5t401 42.5t401.5 -42.5t324 -123.5t219 -209.5t79.5 -290.5q0 -178 -70.5 -307t-206.5 -206.5t-320 -114t-425 -36.5t-425.5 36.5t-320.5 114t-207 206.5t-71 307zM541 641q0 -106 41.5 -187.5t114 -131t165 -74.5 t201.5 -25q247 0 386.5 104t139.5 314q0 193 -143.5 297t-380.5 104q-159 0 -274.5 -41t-182.5 -132.5t-67 -227.5zM668 1532l366 143l375 -143l-47 -156l-328 127l-319 -127z" />
<glyph unicode="&#xf5;" horiz-adv-x="2127" d="M41 641q0 162 79 290.5t218.5 209.5t323.5 123.5t401 42.5t401.5 -42.5t324 -123.5t219 -209.5t79.5 -290.5q0 -178 -70.5 -307t-206.5 -206.5t-320 -114t-425 -36.5t-425.5 36.5t-320.5 114t-207 206.5t-71 307zM541 641q0 -106 41.5 -187.5t114 -131t165 -74.5 t201.5 -25q247 0 386.5 104t139.5 314q0 193 -143.5 297t-380.5 104q-159 0 -274.5 -41t-182.5 -132.5t-67 -227.5zM653 1516q45 48 119 83t148 35q49 0 106 -22.5t100 -50t93.5 -50t89.5 -22.5q80 0 107 9.5t81 55.5l72 -106q-105 -113 -273 -113q-63 0 -126.5 23t-106 50 t-93.5 50t-93 23q-23 0 -39 -2t-26.5 -4t-21.5 -10t-16.5 -13.5t-20 -21t-24.5 -25.5z" />
<glyph unicode="&#xf6;" horiz-adv-x="2127" d="M41 641q0 162 79 290.5t218.5 209.5t323.5 123.5t401 42.5t401.5 -42.5t324 -123.5t219 -209.5t79.5 -290.5q0 -178 -70.5 -307t-206.5 -206.5t-320 -114t-425 -36.5t-425.5 36.5t-320.5 114t-207 206.5t-71 307zM541 641q0 -106 41.5 -187.5t114 -131t165 -74.5 t201.5 -25q247 0 386.5 104t139.5 314q0 193 -143.5 297t-380.5 104q-159 0 -274.5 -41t-182.5 -132.5t-67 -227.5zM702 1468q0 43 43 74t103 31t102.5 -30.5t42.5 -72.5q0 -43 -42.5 -73.5t-102.5 -30.5t-103 30.5t-43 73.5v-2zM1159 1468q0 43 43 74t103 31t102.5 -30.5 t42.5 -72.5q0 -43 -42.5 -73.5t-102.5 -30.5t-103 30.5t-43 73.5v-2z" />
<glyph unicode="&#xf7;" horiz-adv-x="1228" d="M156 539v225h917v-225h-917zM416 276q0 68 59.5 116t140.5 48q79 0 139 -48t60 -116t-60 -110.5t-139 -42.5q-80 0 -140 42.5t-60 110.5zM416 1030q0 68 59.5 115t140.5 47q80 0 139.5 -47t59.5 -115t-60 -112t-139 -44q-80 0 -140 44t-60 112z" />
<glyph unicode="&#xf9;" d="M82 1032v236h858v-236h-221v-581q0 -116 82 -170t264 -54q40 0 61 0.5t57 2.5t56.5 5.5t50 11.5t46 19t36 28.5t29.5 39.5t17 52t7 67v579h-213v236h760v-236h-221v-631q0 -61 -20 -120t-71 -118.5t-128 -103.5t-200 -72t-278 -28q-154 0 -283.5 28t-215.5 73t-146 103.5 t-87 118.5t-27 119v631h-213zM868 1477l23 198l366 -143l-47 -156z" />
<glyph unicode="&#xfa;" d="M82 1032v236h858v-236h-221v-581q0 -116 82 -170t264 -54q40 0 61 0.5t57 2.5t56.5 5.5t50 11.5t46 19t36 28.5t29.5 39.5t17 52t7 67v579h-213v236h760v-236h-221v-631q0 -61 -20 -120t-71 -118.5t-128 -103.5t-200 -72t-278 -28q-154 0 -283.5 28t-215.5 73t-146 103.5 t-87 118.5t-27 119v631h-213zM860 1532l367 143l22 -198l-342 -101z" />
<glyph unicode="&#xfb;" d="M82 1032v236h858v-236h-221v-581q0 -116 82 -170t264 -54q40 0 61 0.5t57 2.5t56.5 5.5t50 11.5t46 19t36 28.5t29.5 39.5t17 52t7 67v579h-213v236h760v-236h-221v-631q0 -61 -20 -120t-71 -118.5t-128 -103.5t-200 -72t-278 -28q-154 0 -283.5 28t-215.5 73t-146 103.5 t-87 118.5t-27 119v631h-213zM688 1532l367 143l375 -143l-48 -156l-327 127l-320 -127z" />
<glyph unicode="&#xfc;" d="M82 1032v236h858v-236h-221v-581q0 -116 82 -170t264 -54q40 0 61 0.5t57 2.5t56.5 5.5t50 11.5t46 19t36 28.5t29.5 39.5t17 52t7 67v579h-213v236h760v-236h-221v-631q0 -61 -20 -120t-71 -118.5t-128 -103.5t-200 -72t-278 -28q-154 0 -283.5 28t-215.5 73t-146 103.5 t-87 118.5t-27 119v631h-213zM743 1468q0 43 43 74t103 31t102.5 -30.5t42.5 -72.5q0 -43 -42.5 -73.5t-102.5 -30.5t-103 30.5t-43 73.5v-2zM1200 1468q0 43 43 74t103 31t102.5 -30.5t42.5 -72.5q0 -43 -42.5 -73.5t-102.5 -30.5t-103 30.5t-43 73.5v-2z" />
<glyph unicode="&#xfd;" horiz-adv-x="1980" d="M20 1030v236h760v-236h-69l315 -313l295 313h-121v236h760v-236h-250l-512 -549v-227h221v-254h-858v254h213v205l-586 571h-168zM860 1532l367 143l22 -198l-342 -101z" />
<glyph unicode="&#xff;" horiz-adv-x="1980" d="M20 1030v236h760v-236h-69l315 -313l295 313h-121v236h760v-236h-250l-512 -549v-227h221v-254h-858v254h213v205l-586 571h-168zM641 1468q0 43 42.5 74t102.5 31t103 -31t43 -72q0 -43 -43 -73.5t-103 -30.5t-102.5 30.5t-42.5 73.5v-2zM1098 1468q0 43 42.5 74 t102.5 31t103 -31t43 -72q0 -43 -43 -73.5t-103 -30.5t-102.5 30.5t-42.5 73.5v-2z" />
<glyph unicode="&#x178;" horiz-adv-x="1980" d="M20 1030v236h760v-236h-69l315 -313l295 313h-121v236h760v-236h-250l-512 -549v-227h221v-254h-858v254h213v205l-586 571h-168zM641 1468q0 43 42.5 74t102.5 31t103 -31t43 -72q0 -43 -43 -73.5t-103 -30.5t-102.5 30.5t-42.5 73.5v-2zM1098 1468q0 43 42.5 74 t102.5 31t103 -31t43 -72q0 -43 -43 -73.5t-103 -30.5t-102.5 30.5t-42.5 73.5v-2z" />
<glyph unicode="&#x2c6;" d="M565 1532l367 143l375 -143l-47 -156l-328 127l-320 -127z" />
<glyph unicode="&#x2dc;" d="M571 1516q45 48 119 83t148 35q49 0 106 -22.5t100 -50t93.5 -50t89.5 -22.5q80 0 107 9.5t81 55.5l72 -106q-105 -113 -273 -113q-63 0 -126.5 23t-106 50t-93.5 50t-93 23q-23 0 -39 -2t-26.5 -4t-21.5 -10t-16.5 -13.5t-20 -21t-24.5 -25.5z" />
<glyph unicode="&#x2000;" horiz-adv-x="837" />
<glyph unicode="&#x2001;" horiz-adv-x="1675" />
<glyph unicode="&#x2002;" horiz-adv-x="837" />
<glyph unicode="&#x2003;" horiz-adv-x="1675" />
<glyph unicode="&#x2004;" horiz-adv-x="558" />
<glyph unicode="&#x2005;" horiz-adv-x="418" />
<glyph unicode="&#x2006;" horiz-adv-x="279" />
<glyph unicode="&#x2007;" horiz-adv-x="279" />
<glyph unicode="&#x2008;" horiz-adv-x="209" />
<glyph unicode="&#x2009;" horiz-adv-x="335" />
<glyph unicode="&#x200a;" horiz-adv-x="93" />
<glyph unicode="&#x2010;" horiz-adv-x="1226" d="M340 567v166h549v-166h-549z" />
<glyph unicode="&#x2011;" horiz-adv-x="1226" d="M340 567v166h549v-166h-549z" />
<glyph unicode="&#x2012;" horiz-adv-x="1226" d="M340 567v166h549v-166h-549z" />
<glyph unicode="&#x2013;" horiz-adv-x="1024" d="M53 567v166h918v-166h-918z" />
<glyph unicode="&#x2014;" horiz-adv-x="2048" d="M12 567v166h2024v-166h-2024z" />
<glyph unicode="&#x2018;" horiz-adv-x="858" d="M129 1012q0 66 11.5 107.5t47.5 92.5q43 62 103.5 103t185.5 106l148 -137q-33 -16 -75 -35.5t-54 -25.5q100 -14 166.5 -71.5t66.5 -139.5q0 -94 -85 -161t-202 -67q-118 0 -216 67t-97 161z" />
<glyph unicode="&#x2019;" horiz-adv-x="858" d="M129 1184q0 94 85.5 160.5t203.5 66.5q116 0 214 -66.5t97 -160.5q0 -66 -12 -108t-47 -93q-43 -62 -103.5 -103t-185.5 -106l-148 137q32 16 74 35.5t55 26.5q-99 14 -166 71.5t-67 139.5z" />
<glyph unicode="&#x201a;" horiz-adv-x="858" d="M129 160q0 94 85.5 160.5t203.5 66.5q75 0 145.5 -27.5t118 -80.5t47.5 -119t-12 -108t-47 -93q-43 -62 -103.5 -103t-185.5 -106l-148 137q32 16 74 35.5t55 26.5q-99 14 -166 71.5t-67 139.5z" />
<glyph unicode="&#x201c;" horiz-adv-x="1515" d="M127 1012q0 66 11.5 107.5t47.5 92.5q43 62 103.5 103t185.5 106l148 -137q-33 -16 -75 -35.5t-54 -25.5q100 -14 166.5 -71.5t66.5 -139.5q0 -94 -85 -161t-202 -67q-118 0 -216 67t-97 161zM791 1012q0 66 11.5 107.5t47.5 92.5q43 62 103.5 103t185.5 106l147 -137 q-33 -16 -75 -35.5t-54 -25.5q100 -14 167 -71.5t67 -139.5q0 -94 -85 -161t-202 -67q-118 0 -216 67t-97 161z" />
<glyph unicode="&#x201d;" horiz-adv-x="1515" d="M125 1184q0 94 85.5 160.5t203.5 66.5q116 0 214 -66.5t97 -160.5q0 -66 -12 -108t-47 -93q-43 -62 -103.5 -103t-185.5 -106l-148 137q32 16 74 35.5t55 26.5q-99 14 -166 71.5t-67 139.5zM788 1184q0 94 85.5 160.5t203.5 66.5q116 0 214.5 -66.5t97.5 -160.5 q0 -65 -12 -107.5t-48 -93.5q-43 -62 -103.5 -103t-185.5 -106l-147 137q32 16 74 35.5t55 26.5q-99 14 -166.5 71.5t-67.5 139.5z" />
<glyph unicode="&#x201e;" horiz-adv-x="1515" d="M125 160q0 94 85.5 160.5t203.5 66.5q75 0 145.5 -28t118 -81t47.5 -118q0 -66 -12 -108t-47 -93q-43 -62 -103.5 -103t-185.5 -106l-148 137q32 16 74 35.5t55 26.5q-99 14 -166 71.5t-67 139.5zM788 160q0 94 85.5 160.5t203.5 66.5q73 0 143.5 -26.5t119.5 -80 t49 -120.5q0 -65 -12 -107.5t-48 -93.5q-43 -62 -103.5 -103t-185.5 -106l-147 137q32 16 74 35.5t55 26.5q-99 14 -166.5 71.5t-67.5 139.5z" />
<glyph unicode="&#x2022;" horiz-adv-x="847" d="M137 772v72q192 45 244 178h90q19 -75 75 -111.5t165 -56.5v-74q-192 -45 -244 -178h-90q-20 75 -75.5 112.5t-164.5 57.5z" />
<glyph unicode="&#x2026;" horiz-adv-x="2170" d="M123 172q0 90 85.5 152.5t203.5 62.5q117 0 201.5 -62.5t84.5 -152.5q0 -88 -85 -145.5t-201 -57.5q-118 0 -203.5 57.5t-85.5 145.5zM797 172q0 90 84.5 152.5t201.5 62.5t203 -62.5t86 -152.5q0 -88 -85.5 -145.5t-203.5 -57.5q-116 0 -201 57.5t-85 145.5zM1473 172 q0 90 84.5 152.5t201.5 62.5q118 0 203.5 -62.5t85.5 -152.5q0 -88 -85.5 -145.5t-203.5 -57.5q-116 0 -201 57.5t-85 145.5z" />
<glyph unicode="&#x202f;" horiz-adv-x="335" />
<glyph unicode="&#x2039;" horiz-adv-x="1130" d="M61 471l764 514l244 -106l-526 -410l526 -410l-244 -104z" />
<glyph unicode="&#x203a;" horiz-adv-x="1130" d="M61 59l527 410l-527 410l244 106l764 -514l-764 -516z" />
<glyph unicode="&#x205f;" horiz-adv-x="418" />
<glyph unicode="&#x2122;" horiz-adv-x="1904" d="M102 1092v196h723v-196h-112v102h-164v-311h108v-103h-383v103h105v311h-164v-102h-113zM854 780v103h84v311h-84v94h211l258 -282l242 280l237 2v-94h-86v-311h86v-103h-344v103h90v166l-221 -267h-35l-223 267v-166h119v-103h-334z" />
<glyph unicode="&#x25fc;" horiz-adv-x="1269" d="M0 0v1270h1270v-1270h-1270z" />
<glyph unicode="&#xfb01;" horiz-adv-x="2783" d="M82 0v254h213v778h-213v236h1599v-492h-282v256h-680v-264h467v-236h-467v-278h221v-254h-858zM1843 0v254h213v778h-213v236h858v-236h-221v-778h221v-254h-858z" />
<glyph unicode="&#xfb02;" horiz-adv-x="3524" d="M82 0v254h213v778h-213v236h1599v-492h-282v256h-680v-264h467v-236h-467v-278h221v-254h-858zM1843 0v254h213v778h-213v236h858v-236h-221v-778h680v240h283v-494h-1600z" />
</font>
</defs>
</svg>
